<svg width="27" height="27" viewBox="0 0 27 27" fill="none" xmlns="http://www.w3.org/2000/svg">
<path fill-rule="evenodd" clip-rule="evenodd" d="M3.375 4.5H23.625C24.2463 4.5 24.75 3.99632 24.75 3.375C24.75 2.75368 24.2463 2.25 23.625 2.25H3.375C2.75368 2.25 2.25 2.75368 2.25 3.375C2.25 3.99632 2.75368 4.5 3.375 4.5ZM24.75 22.5C24.75 23.1213 24.2463 23.625 23.625 23.625H3.375C2.75368 23.625 2.25 23.1213 2.25 22.5C2.25 21.8787 2.75368 21.375 3.375 21.375H23.625C24.2463 21.375 24.75 21.8787 24.75 22.5ZM3.375 12.375H23.625C24.2463 12.375 24.75 12.8787 24.75 13.5C24.75 14.1213 24.2463 14.625 23.625 14.625H3.375C2.75368 14.625 2.25 14.1213 2.25 13.5C2.25 12.8787 2.75368 12.375 3.375 12.375Z" fill="#3B97ED"/>
</svg>
