<svg width="27" height="27" viewBox="0 0 27 27" fill="none" xmlns="http://www.w3.org/2000/svg">
<path d="M24.75 5.625V10.125C24.75 10.7463 24.2463 11.25 23.625 11.25C23.0037 11.25 22.5 10.7463 22.5 10.125V8.46L15.4687 16.4925C15.2555 16.7353 14.9481 16.8746 14.625 16.875C14.3127 16.883 14.0111 16.7607 13.7925 16.5375L11.2725 13.995L4.18499 22.1175C3.92553 22.4396 3.51023 22.5934 3.10354 22.5179C2.69686 22.4424 2.3644 22.1499 2.23782 21.7561C2.11124 21.3623 2.21096 20.9308 2.49749 20.6325L10.3725 11.6325C10.5773 11.3978 10.8703 11.2586 11.1815 11.2479C11.4928 11.2373 11.7946 11.3562 12.015 11.5763L14.625 14.0962L21.0037 6.75H19.125C18.5037 6.75 18 6.24632 18 5.625C18 5.00368 18.5037 4.5 19.125 4.5H23.625C24.2463 4.5 24.75 5.00368 24.75 5.625Z" fill="#3B97ED"/>
</svg>
