<svg width="24" height="24" viewBox="0 0 24 24" fill="none" xmlns="http://www.w3.org/2000/svg">
<path fill-rule="evenodd" clip-rule="evenodd" d="M12 4.25C15.77 4.25 19.28 6.83 21.88 11.51C22.0586 11.8194 22.0586 12.2006 21.88 12.51C19.28 17.19 15.77 19.77 12 19.77C8.23001 19.77 4.73001 17.19 2.13001 12.51C1.95137 12.2006 1.95137 11.8194 2.13001 11.51C4.73001 6.83 8.23001 4.25 12 4.25ZM4.18001 11.97C4.48682 12.5001 4.82059 13.0141 5.18001 13.51C4.94009 12.4973 4.94009 11.4426 5.18001 10.43C4.82059 10.9259 4.48682 11.4399 4.18001 11.97ZM12 17C9.23858 17 7.00001 14.7614 7.00001 12C7.00001 9.23858 9.23858 7 12 7C14.7614 7 17 9.23858 17 12C17 14.7614 14.7614 17 12 17ZM19.82 12C19.5154 11.4653 19.1816 10.9479 18.82 10.45C19.0601 11.4694 19.0601 12.5306 18.82 13.55C19.1816 13.0521 19.5154 12.5347 19.82 12Z" fill="#8B8B8B"/>
</svg>
